<svg viewBox="0 0 30.25 30.25" id="shape-flag-he" width="100%" height="100%">
    <g id="flag-he-Layer_2" data-name="Layer 2">
        <g id="flag-he-Open">
            <path d="M.13,15.12a14.91,14.91,0,0,0,2.55,8.36H27.57a15,15,0,0,0,0-16.69H2.66A14.91,14.91,0,0,0,.13,15.12Z"
                  style="fill:#fff"></path>
            <path d="M2.67,23.47a15.11,15.11,0,0,0,3.81,3.89h17.3a15.11,15.11,0,0,0,3.81-3.89Z"
                  style="fill:#00c"></path>
            <path d="M2.65,6.81H27.6A15.11,15.11,0,0,0,23.8,2.92H6.44A15.11,15.11,0,0,0,2.65,6.81Z"
                  style="fill:#00c"></path>
            <path d="M21.77,18.83l-.06-.11-2.1-3.53-.07-.12.18-.29,2-3.38,0-.06.06-.1H17.26l-.1-.16-2-3.38-.07-.11L15,7.67l-1.48,2.55-.58,1,0,0H8.54l.05.08.76,1.3,1,1.68.42.73-.05.1L8.57,18.78l0,.11H13l.36.62,1.58,2.74.18.29.08-.13,2-3.4.08-.12h4.51ZM13.37,18l-1.66-2.87L13,12.76l.34-.6h3.47L18.44,15a.15.15,0,0,1,0,.18L16.68,18Zm6.79,0H17.83l1.11-1.84L19,16l0,0ZM19,14.08l-.07.11,0-.07-1.09-2h2.34l-.24.4Zm-5.14-2.84,1.22-2c.06,0,.07.06.09.09l1.13,1.86.06.09h-2.5Zm-3.79,1,0-.07h2.34l-.64,1.16-.48.87-.07-.11Zm.66,4.55.42-.7.07-.11.07.11.83,1.55.17.32H10Zm5.52,2.13-.32.54-.76,1.24-.08.13L14,18.91v0H16.3Z"
                  style="fill:#0101cc"></path>
            <path d="M15.12,30.12a14.9,14.9,0,0,0,8.65-2.77H6.48A14.9,14.9,0,0,0,15.12,30.12Z" style="fill:#fff"></path>
            <path d="M15.12.12A14.9,14.9,0,0,0,6.44,2.92H23.8A14.9,14.9,0,0,0,15.12.12Z" style="fill:#fff"></path>
            <path id="flag-he-_Compound_Path_" data-name="<Compound Path>"
                  d="M15.12,30.13a15,15,0,1,1,15-15,15,15,0,0,1-15,15"
                  style="fill:none;stroke:#00c;stroke-miterlimit:10;stroke-width:0.25px"></path>
        </g>
    </g>
</svg>