<?xml version="1.0" encoding="UTF-8"?>
<svg width="47px" height="47px" viewBox="0 0 47 47" version="1.1" xmlns="http://www.w3.org/2000/svg" xmlns:xlink="http://www.w3.org/1999/xlink">
    <!-- Generator: Sketch 48.1 (47250) - http://www.bohemiancoding.com/sketch -->
    <title>jewelry</title>
    <desc>Created with Sketch.</desc>
    <defs></defs>
    <g id="icons" stroke="none" stroke-width="1" fill="none" fill-rule="evenodd">
        <g id="jewelry" stroke="#AFC0CB">
            <path d="M24,45 C25.1045695,45 26,44.1045695 26,43 C26,42.2636203 25.3333333,39.2636203 24,34 C22.6666667,39.2636203 22,42.2636203 22,43 C22,44.1045695 22.8954305,45 24,45 Z" id="Oval-7-Copy-7" fill="#FFFFFF"></path>
            <circle id="Oval-6" cx="23.5" cy="18.5" r="15.5"></circle>
            <circle id="Oval-7" fill="#FFFFFF" cx="24" cy="34" r="2"></circle>
            <path d="M13,32 C14.1045695,32 15,31.1045695 15,30 C15,29.3689631 14.7077495,28.8061849 14.2512141,28.4396313 C13.9086282,28.1645681 13.4735326,28 13,28 C11.8954305,28 11,28.8954305 11,30 C11,31.1045695 11.8954305,32 13,32 Z" id="Oval-7-Copy-9" fill="#FFFFFF"></path>
            <path d="M34,32 C35.1045695,32 36,31.1045695 36,30 C36,29.3689631 35.7077495,28.8061849 35.2512141,28.4396313 C34.9086282,28.1645681 34.4735326,28 34,28 C32.8954305,28 32,28.8954305 32,30 C32,31.1045695 32.8954305,32 34,32 Z" id="Oval-7-Copy-11" fill="#FFFFFF"></path>
            <path d="M9,26 C10.1045695,26 11,25.1045695 11,24 C11,23.3689631 10.7077495,22.8061849 10.2512141,22.4396313 C9.90862824,22.1645681 9.47353259,22 9,22 C7.8954305,22 7,22.8954305 7,24 C7,25.1045695 7.8954305,26 9,26 Z" id="Oval-7-Copy-10" fill="#FFFFFF"></path>
            <path d="M38,26 C39.1045695,26 40,25.1045695 40,24 C40,23.3689631 39.7077495,22.8061849 39.2512141,22.4396313 C38.9086282,22.1645681 38.4735326,22 38,22 C36.8954305,22 36,22.8954305 36,24 C36,25.1045695 36.8954305,26 38,26 Z" id="Oval-7-Copy-12" fill="#FFFFFF"></path>
            <g id="Group-2-Copy" transform="translate(29.589486, 36.382503) scale(-1, 1) rotate(20.000000) translate(-29.589486, -36.382503) translate(27.589486, 31.382503)" fill="#FFFFFF">
                <path d="M2,10 C3.1045695,10 4,9.1045695 4,8 C4,7.26362033 3.33333333,5.59695367 2,3 C0.666666667,5.59695367 0,7.26362033 0,8 C0,9.1045695 0.8954305,10 2,10 Z" id="Oval-7-Copy-8"></path>
                <circle id="Oval-7-Copy-9" cx="2" cy="2" r="2"></circle>
            </g>
            <g id="Group-2-Copy-2" transform="translate(18.589486, 36.382503) rotate(20.000000) translate(-18.589486, -36.382503) translate(16.589486, 31.382503)" fill="#FFFFFF">
                <path d="M2,10 C3.1045695,10 4,9.1045695 4,8 C4,7.26362033 3.33333333,5.59695367 2,3 C0.666666667,5.59695367 0,7.26362033 0,8 C0,9.1045695 0.8954305,10 2,10 Z" id="Oval-7-Copy-8"></path>
                <circle id="Oval-7-Copy-9" cx="2" cy="2" r="2"></circle>
            </g>
        </g>
    </g>
</svg>