<svg xmlns="http://www.w3.org/2000/svg" viewBox="0 0 31.55 25.05" width="100%" height="100%"><title>Languges</title><g id="Layer_2" data-name="Layer 2"><g id="Layer_1-2" data-name="Layer 1"><path d="M31.55,25H28.7a.24.24,0,0,1-.27-.2c-.63-1.87-1.27-3.73-1.89-5.6A.29.29,0,0,0,26.2,19H18.53a.28.28,0,0,0-.31.23l-1.89,5.61a.24.24,0,0,1-.28.2H13.2L20.34,5h3.87c.16,0,.23,0,.28.19Q26.41,10.61,28.35,16l3.12,8.75a1.3,1.3,0,0,0,.08.17ZM22.38,8l-3.06,8h6.1Z" style="fill:#fff"/><path d="M0,4H7.13V0h3.05V4h7.09V7H10.12c.2.63.38,1.23.59,1.81a13.38,13.38,0,0,0,3.21,4.9c.33.32.66.64,1,1a.24.24,0,0,1,.06.19c-.33.94-.67,1.89-1,2.87A19.28,19.28,0,0,1,9.18,11C7.82,15.27,4.82,18,1,20,1,20,1,19.89,1,19.82L.08,17.26c0-.06,0-.12-.08-.19v0c.67-.38,1.35-.74,2-1.15a10.45,10.45,0,0,0,3.68-3.82A16.43,16.43,0,0,0,7.14,8a8.6,8.6,0,0,0,.15-1h-7L0,7Z" style="fill:#fff"/></g></g></svg>