<?xml version="1.0" encoding="utf-8"?>
<!-- Generator: Adobe Illustrator 22.0.1, SVG Export Plug-In . SVG Version: 6.00 Build 0)  -->
<svg version="1.1" id="Layer_1" xmlns="http://www.w3.org/2000/svg" xmlns:xlink="http://www.w3.org/1999/xlink" x="0px" y="0px"
	 viewBox="0 0 170.4 55.8" width="100%" height="100%" style="enable-background:new 0 0 170.4 55.8;" xml:space="preserve">
<style type="text/css">
	.st0{fill:#F5A934;}
	.st1{fill:#46BCCC;}
	.st2{fill:#B8311A;}
	.st3{fill:#232F80;}
	.st4{fill:#C4E3E7;}
	.st5{fill:#FFFFFF;}
</style>
<title>Logo-big-Heb</title>
<g id="Layer_2_1_">
	<g id="Open">
		<path class="st0" d="M146.2,55.8l-2.5-4.3c1.5-0.9,3.4-0.9,4.9,0L146.2,55.8"/>
		<path class="st1" d="M124.3,18l-2.4-4.2h4.9c0,0.9-0.2,1.7-0.7,2.5C125.7,17,125.1,17.6,124.3,18"/>
		<polyline class="st2" points="131.6,42.2 127.7,42.2 128.2,39 131,38.3 131.6,42.2 		"/>
		<polyline class="st2" points="129.2,26.4 125.6,20.1 129.8,20.5 129.2,26.4 		"/>
		<polyline class="st0" points="121.9,42.2 124.2,38.3 127,39.1 126.4,42.2 121.9,42.2 		"/>
		<path class="st2" d="M143,5.3l3-5.3c1.6,2.7,2.4,4.1,2.4,4.1C147.8,4.3,143,5.3,143,5.3"/>
		<polyline class="st3" points="129.1,33.3 127.5,32.4 130,28.1 130.7,29.3 129.1,33.3 		"/>
		<polyline class="st3" points="165.3,22.3 162.7,21.7 164.1,17.4 167.6,18.2 165.3,22.3 		"/>
		<polyline class="st2" points="141.5,47.6 140.4,45.7 143.4,43.4 145.5,46.9 141.5,47.6 		"/>
		<path class="st0" d="M139.9,44.9l-1.5-2.6h4.9L139.9,44.9"/>
		<polyline class="st2" points="162.2,27.5 160,23.9 162.3,22.7 164.7,23.2 162.2,27.5 		"/>
		<polyline class="st1" points="149.3,50.2 147.4,49.5 146.7,46.5 151.1,47 149.3,50.2 		"/>
		<polyline class="st2" points="170.4,42.2 166.5,42.2 167.9,37.9 170.4,42.2 		"/>
		<polyline class="st1" points="140,10.6 142.2,6.7 145.9,5.9 143.8,10.5 140,10.6 		"/>
		<path class="st1" d="M164.3,37.5l-3.5-3.7l4.7,0.2l1.8,3L164.3,37.5"/>
		<polyline class="st0" points="150.1,11.9 146.3,8.4 147.5,5.7 149.2,5.4 152,10.3 150.1,11.9 		"/>
		<polyline class="st2" points="162.9,17.2 160,17.2 161.1,13.8 163.9,13.8 162.9,17.2 		"/>
		<polyline class="st4" points="161.7,39.8 160.1,39.4 160.4,34.9 163.9,38.6 161.7,39.8 		"/>
		<polyline class="st1" points="138.7,31 135.3,29.2 137.9,25 140.5,26.8 138.7,31 		"/>
		<path class="st1" d="M140.5,39l-2.2-2.8c1.2-0.8,3.5-2.1,3.5-2.1l1.9,1.2L140.5,39"/>
		<path class="st0" d="M136.9,35.9l0.6-4.3c0.5,0.2,3.4,1.9,3.4,1.9C140.4,33.8,136.9,35.9,136.9,35.9"/>
		<polyline class="st2" points="132.4,29.8 130.7,26.8 133.5,22.1 135.4,27.2 132.4,29.8 		"/>
		<polyline class="st4" points="143,23.2 140.5,20.7 144.4,18.1 145.4,22.5 143,23.2 		"/>
		<polyline class="st1" points="149.3,22.6 146.2,20.6 145,15.5 147.8,14.8 149.3,22.6 		"/>
		<polyline class="st4" points="151.7,25.8 150.1,21.4 155.3,21.4 151.7,25.8 		"/>
		<polyline class="st3" points="159,39.4 156.1,38.4 158.8,33.7 159,39.4 		"/>
		<polyline class="st0" points="161.5,28.6 157.8,28.1 159.1,24.5 161.5,28.6 		"/>
		<polyline class="st4" points="158.2,32.6 154.9,31.4 153.3,28.1 159.8,29.7 158.2,32.6 		"/>
		<polyline class="st3" points="136.1,25.9 134.6,21.9 137,18.8 139.1,20.9 136.1,25.9 		"/>
		<polyline class="st1" points="134.2,20.5 134,13.8 135.4,13.8 137.3,16.5 134.2,20.5 		"/>
		<polyline class="st1" points="137.1,42.2 132.6,42.2 132.1,38.9 137.1,42.2 		"/>
		<polyline class="st2" points="138.7,16.5 137.3,15.3 139.3,11.8 142.4,11.7 138.7,16.5 		"/>
		<polyline class="st2" points="134.5,39.1 132.3,37.7 133.4,33.8 136.2,35.4 134.5,39.1 		"/>
		<polyline class="st4" points="128.4,37.7 131.4,30.4 132.6,32.6 131.4,36.9 128.4,37.7 		"/>
		<path class="st1" d="M143,50.2l-1-1.6l3.8-0.6c0,0,0.2,0.8,0.4,1.5L143,50.2"/>
		<path class="st4" d="M146.7,45.6l-2.1-2.1c0.6-0.7,1-1.5,1.3-2.4l2.9,0.1C148.8,43,148,44.6,146.7,45.6"/>
		<polyline class="st0" points="165.4,42.2 163.2,42.2 162.4,40.8 166.3,38.4 165.4,42.2 		"/>
		<path class="st2" d="M165,32.9l-5.5-0.3c0.2-0.4,1.4-2.4,1.4-2.4l2.2-0.6L165,32.9"/>
		<polyline class="st1" points="161.9,42.2 154.9,42.2 156.7,39.7 161.2,40.8 161.9,42.2 		"/>
		<polyline class="st2" points="153.8,42.4 149.4,40.7 152,36.8 155.4,39.7 153.8,42.4 		"/>
		<polyline class="st0" points="146.4,40.2 145.5,35.3 150.6,36.2 149.2,38.8 146.4,40.2 		"/>
		<path class="st2" d="M144,41.7l-3-1.7l3-3.4c0.6,0.6,1,1.4,1.1,2.3v0.1C145.2,39.9,144.8,40.9,144,41.7"/>
		<polyline class="st1" points="127.3,38 124.8,37.2 127,33.4 128.8,34.4 127.3,38 		"/>
		<path class="st3" d="M151.7,46.1l-3-0.4c0.9-1,1.4-2.3,1.5-3.7l3.1,1.2L151.7,46.1"/>
		<polyline class="st3" points="141,41.2 137.7,41.2 135.4,39.7 137.4,36.8 141,41.2 		"/>
		<path class="st3" d="M136.1,34.1c-1.7-0.3-2.8-1.8-2.6-3.5c0.1-0.4,0.2-0.7,0.3-1l0.7,0.4l2,1.1L136.1,34.1"/>
		<polyline class="st4" points="161.3,22.4 160,22.1 157.9,18.4 162.7,18.4 161.3,22.4 		"/>
		<polyline class="st3" points="148.8,27.4 144.2,24.3 147,22.6 150.1,24.7 150.7,26.4 148.8,27.4 		"/>
		<polyline class="st1" points="145.1,29.6 141.7,27.3 144.5,25.8 147.9,28 145.1,29.6 		"/>
		<path class="st0" d="M151,31.5h-0.3c-1.4-0.1-2.7-0.7-3.6-1.8l4.1-2.3l1.8,3.6C152.5,31.4,151.7,31.5,151,31.5"/>
		<polyline class="st4" points="144.1,14.5 142.9,13.3 145.8,9.5 149.1,12.6 147.8,13.7 144.1,14.5 		"/>
		<path class="st3" d="M156.5,27.8l-4.3-1.1l3.2-3.3C156.6,24.5,157.1,26.2,156.5,27.8"/>
		<path class="st1" d="M157.5,24.9c-0.1-0.4-0.3-0.8-0.5-1.1c-0.3-0.4-0.6-0.8-1-1.2l1.1-3.4l2.1,3.5L157.5,24.9"/>
		<path class="st1" d="M150.7,20.2h-0.9l-0.6-3.7l2.6,0.7C151,18.1,150.7,19.1,150.7,20.2"/>
		<polyline class="st1" points="168.2,17.1 164.5,16.2 165.3,13.8 170.1,13.8 168.2,17.1 		"/>
		<polyline class="st2" points="141.6,26.2 138.5,24.2 140,21.7 143.5,25.1 141.6,26.2 		"/>
		<polyline class="st0" points="139.9,19.9 138.4,18.6 141.9,14 143.9,16 144.1,17 139.9,19.9 		"/>
		<polyline class="st1" points="156.3,36.2 153.8,32.1 157.8,33.5 156.3,36.2 		"/>
		<path class="st4" d="M154.9,37.9l-2.4-2L153,33c1.3,0.9,2.1,2.4,2.1,4C155.1,37.3,155,37.6,154.9,37.9"/>
		<polyline class="st4" points="144.1,34.1 139.7,31.6 141.2,28.2 146.9,31.6 144.1,34.1 		"/>
		<polyline class="st3" points="131.2,17.8 128.2,13.8 133.1,13.8 133.2,16.2 131.2,17.8 		"/>
		<polyline class="st0" points="129.4,19.3 125.1,18.9 128.1,15.3 130.3,18.6 129.4,19.3 		"/>
		<polyline class="st4" points="130.8,24.8 130.5,24.4 130.9,19.5 133.2,17.7 133.2,20.6 130.8,24.8 		"/>
		<polyline class="st2" points="151.6,35.2 145.7,34.3 147.9,32.1 152.1,32.5 151.6,35.2 		"/>
		<polyline class="st0" points="159,17.2 156.8,17.1 155.1,13.8 160.1,13.8 159,17.2 		"/>
		<path class="st2" d="M155.7,20.4h-4l0,0c0-2.1,1.6-3.8,3.7-4l1.1,1.8l-0.7,2.3"/>
		<path class="st3" d="M152.7,16.4l-3.5-0.9l-0.2-1.1c1.9-1.6,3.6-3,3.6-3l2.3,4.1c-0.6,0.1-1.1,0.3-1.6,0.6
			C153.1,16.2,152.9,16.3,152.7,16.4"/>
		<path class="st5" d="M77.3,44.9H76V33h1.2L77.3,44.9 M52,42.8v-1.1l2.2-0.7c-1.4-4.4-2.6-8-2.6-8H53c0.5,1.8,1.6,5.3,2.2,7.5
			c1.9-0.9,2.6-2.3,2.6-4.5V33H59v2.7c0,2.7-0.8,4-2.1,4.9c-0.7,0.5-1.5,0.9-2.3,1.2C53.8,42.1,52.9,42.4,52,42.8 M110.2,42
			c-0.5,0-1-0.1-1.6-0.2v-1c0.5,0.2,1,0.2,1.5,0.2c1.7,0,2.4-1.5,2.4-3.9c0-1-0.6-3.3-2.5-3.3c-2.1,0-3.1,3.3-3.2,4.7
			c0,0.1-0.2,1.9-0.4,3.3h-1.2c0.3-2,0.5-3.4,0.5-3.4c0.1-0.5,0.1-1,0.1-1.5c-0.1-0.7-0.2-1.4-0.4-2.1c-0.2-0.6-0.3-1.3-0.5-1.7h1.3
			c0.2,0.7,0.4,1.9,0.7,2.9c0.9-2.7,2-3.1,3.4-3.1c2.2,0,3.6,2,3.6,4.2C113.9,39.9,112.7,42,110.2,42 M102.9,41.8h-1.2V33h1.2V41.8
			 M98.1,41.8h-1.2V37c0-1.2,0.5-2.3,1.5-3h-2.6v-1h4.2v1h-0.9c-0.6,0.5-1,1.4-1,2.2L98.1,41.8 M90.8,41.8h-1.3
			c-1.1-1.8-2.3-3.4-3.7-5.1c-0.8,0.5-1.3,1.4-1.4,2.4v2.7h-1.2v-2.5c0-1.4,0.9-2.6,2.1-3.2c-0.7-1-1.4-1.8-2.5-3.1h1.4
			c0.7,0.9,2,2.4,3.4,4.3c0.8-0.3,1.4-1.1,1.4-2V33h1.2v1.9c0,1.4-0.9,2.6-2.2,3.1C89.1,39.2,89.9,40.3,90.8,41.8 M81,41.7h-1.2V33
			H81L81,41.7 M68.5,41.8h-1.2v-5.4c0-1.6-0.8-2.5-3-2.5c-1.1,0-2.1,0.1-3.1,0.3v-1c1.1-0.1,2.1-0.2,3.2-0.2c2.4,0,4.2,0.9,4.2,3.4
			V41.8 M62.6,41.8h-1.2v-4.9l1.2-0.3V41.8 M50.2,41.8h-7.7V33h4.5c1.7-0.1,3.2,1.3,3.2,3c0,0.1,0,0.1,0,0.2L50.2,41.8 M43.6,33.9
			v6.9h5.3v-4.5c0.1-1.2-0.8-2.3-2-2.4c-0.1,0-0.3,0-0.4,0H43.6 M34.8,41.7h-1.2v-5.4c0-1.6-0.8-2.5-3-2.5c-1.1,0-2.1,0.1-3.1,0.3
			v-1c1.1-0.1,2.1-0.2,3.2-0.2c2.4,0,4.2,0.9,4.2,3.4V41.7 M28.9,41.8h-1.2v-4.9l1.2-0.3V41.8 M21.9,41.8h-1.2v-5.4
			c0-1.6-0.8-2.5-3-2.5c-1.1,0-2.1,0.1-3.1,0.3v-1c1-0.1,2.1-0.2,3.2-0.2c2.4,0,4.2,0.9,4.2,3.4L21.9,41.8 M16.1,41.8h-1.2v-4.9
			l1.2-0.3V41.8 M12.2,41.8H11V33h1.2V41.8 M8,41.8H6.8V34H2.7v-1h6.6v1H8V41.8 M92.7,38.3V33H94v4.8L92.7,38.3 M24,38.2V33h1.2v4.8
			L24,38.2 M0,38.2V33h1.2v4.8L0,38.2"/>
		<path class="st5" d="M27.7,24.2h-2.5v-5.5c0-0.6-0.2-1.1-0.6-1.6c-0.4-0.4-0.9-0.7-1.5-0.6h-1.4v5.6c0,0.7-0.2,1.3-0.7,1.8
			c-0.5,0.4-1.2,0.6-1.9,0.6c-0.7,0.1-1.3-0.1-1.9-0.4v-1.7c0.3,0.1,0.6,0.2,0.9,0.2c0.7,0,1.1-0.4,1.1-1.1v-4.2l0.3-0.8h-2.1v-1.8
			h6.5c1.1-0.1,2.1,0.3,2.9,1c0.7,0.7,1.1,1.7,1,2.7L27.7,24.2z"/>
		<path class="st5" d="M32.5,24.2H30v-9.4h2.5V24.2z"/>
		<path class="st5" d="M43.1,16c0,0.8,0,1.5-0.3,2.3c-0.3,0.9-1,1.6-1.9,1.9c1.4,1.8,2,2.7,2,2.7v1.4h-8.5v-1.8h4.1l1,0.1L34,14.8
			h3.1l3,4.2h0.1c0.3,0,0.5-0.7,0.5-2v-2.2h2.5L43.1,16z"/>
		<path class="st5" d="M47.9,24.2h-2.6v-9.4h2.6V24.2z"/>
		<path class="st5" d="M59.2,19.5c0,3.3-1.8,4.9-5.3,4.9c-1,0-1.6,0-2,0c-0.5-0.1-1.1-0.2-1.6-0.5v-1.9c1.1,0.5,2.2,0.7,3.4,0.6
			c1.9,0,2.9-1,2.9-3.1c0-2.2-0.8-3.3-2.3-3.3c-0.5,0-0.9,0.1-1.3,0.4c-0.4,0.3-0.6,0.7-0.6,1.2c0,0.9,0.4,1.3,1.2,1.3
			c0.1,0,0.3,0,0.4,0v1.5c-0.3,0-0.6,0.1-0.9,0.1c-0.7,0-1.5-0.1-2.1-0.5c-0.8-0.5-1.2-1.4-1.2-2.3c0-1,0.4-1.9,1.2-2.4
			c1-0.6,2.1-0.9,3.3-0.9c1.3-0.1,2.6,0.4,3.6,1.3C58.8,16.9,59.2,18.2,59.2,19.5z"/>
		<path class="st5" d="M71.2,24.2h-2.5v-5.5c0-0.6-0.2-1.1-0.6-1.6c-0.4-0.4-0.9-0.7-1.5-0.6h-1.4v5.6c0,0.7-0.2,1.3-0.7,1.8
			c-0.5,0.4-1.2,0.6-1.9,0.6c-0.7,0.1-1.3-0.1-1.9-0.4v-1.7c0.3,0.1,0.6,0.2,0.9,0.2c0.7,0,1.1-0.4,1.1-1.1v-4.2l0.3-0.8h-2.1v-1.8
			h6.5c1.1-0.1,2.1,0.3,2.9,1c0.7,0.7,1.1,1.7,1,2.7L71.2,24.2z"/>
		<path class="st5" d="M81.9,24.2h-2.6v-5.4c0-0.7-0.2-1.4-0.8-1.8c-0.6-0.5-1.4-0.7-2.1-0.6c-1.1,0-2.1,0.1-3.1,0.4v-1.8
			c1.3-0.3,2.7-0.4,4.1-0.3c1.1,0,2.1,0.2,3,0.8c1,0.5,1.5,1.5,1.5,2.6L81.9,24.2z M76.1,24.2h-2.6V19l2.6-0.5L76.1,24.2z"/>
		<path class="st5" d="M98.4,24.2h-2.6v-5.5c0-0.6-0.2-1.1-0.6-1.6c-0.4-0.4-0.9-0.7-1.5-0.6h-1.4v5.6c0,0.7-0.2,1.3-0.7,1.8
			c-0.5,0.4-1.2,0.6-1.9,0.6c-0.7,0.1-1.3-0.1-1.9-0.4v-1.7c0.3,0.1,0.6,0.2,0.9,0.2c0.7,0,1.1-0.4,1.1-1.1v-4.2l0.3-0.8H88v-1.8
			h6.5c1.1-0.1,2.1,0.3,2.9,1c0.7,0.7,1.1,1.7,1,2.7L98.4,24.2z"/>
		<path class="st5" d="M103.1,19.7c-0.8,0.3-1.7,0.5-2.6,0.7v-5.6h2.6V19.7z"/>
		<path class="st5" d="M113.3,24.2h-8.5v-1.8h4.6v-4c0-0.7-0.4-1.4-1-1.7c-0.5-0.3-1.1-0.4-1.7-0.4c-0.6,0-1.3,0.1-1.9,0.3v-1.8
			c1-0.2,2.1-0.3,3.1-0.3c1,0,2.1,0.3,2.9,1c0.8,0.6,1.2,1.6,1.2,2.7v4.2h1.3L113.3,24.2z"/>
	</g>
</g>
</svg>
