<?xml version="1.0" encoding="utf-8"?>
<!-- Generator: Adobe Illustrator 22.0.1, SVG Export Plug-In . SVG Version: 6.00 Build 0)  -->
<svg version="1.1" id="Layer_1" xmlns="http://www.w3.org/2000/svg" xmlns:xlink="http://www.w3.org/1999/xlink" x="0px" y="0px"
	 viewBox="0 0 178.5 55.8" width="100%" height="100%" style="enable-background:new 0 0 178.5 55.8;" xml:space="preserve">
<style type="text/css">
	.st0{fill:#FFFFFF;}
	.st1{fill:#F5A934;}
	.st2{fill:#46BCCC;}
	.st3{fill:#B8311A;}
	.st4{fill:#232F80;}
	.st5{fill:#C4E3E7;}
</style>
<title>Logo-big-Eng</title>
<g id="Layer_2_1_">
	<g id="Open">
		<g id="_Group_">
			<path class="st0" d="M55.5,10.1h4.7c1.7,0,3.6,0.4,3.6,2.5c0,0.9-0.5,1.6-1.3,2c1.1,0.3,1.8,1.3,1.7,2.4c0,2.4-1.8,3.1-3.9,3.1
				h-4.8L55.5,10.1z M58,14h2c0.6,0,1-0.4,1.1-0.9c0,0,0,0,0-0.1c0-0.7-0.5-1-1.1-1h-2V14z M58,18h2.1c0.8,0,1.4-0.3,1.4-1.1
				s-0.6-1.2-1.4-1.2H58V18z"/>
			<path class="st0" d="M65.6,10.1h8v2.1h-5.4v1.8h4.9v2h-4.9v1.9h5.5v2.2h-8.1V10.1z"/>
			<path class="st0" d="M75.2,10.1h2.6v10h-2.6V10.1z"/>
			<path class="st0" d="M87.5,12.3h-3v7.8h-2.6v-7.8h-3v-2.2h8.6L87.5,12.3z"/>
			<path class="st0" d="M93,10.1h2.6v3.6H99v-3.6h2.6v10H99V16h-3.4v4.1H93V10.1z"/>
			<path class="st0" d="M106.1,10.1h2.7l3.7,10h-2.7l-0.6-1.8h-3.5l-0.6,1.8h-2.7L106.1,10.1z M106.3,16.4h2.3l-1.1-3.5l0,0
				L106.3,16.4z"/>
			<path class="st0" d="M121.2,12.3h-3v7.8h-2.6v-7.8h-3v-2.2h8.6L121.2,12.3z"/>
			<path class="st0" d="M122.3,10.1h7.4v2.1h-4.8v2h4.1v2h-4.1V20h-2.6L122.3,10.1z"/>
			<path class="st0" d="M139.5,16c0,2.9-1.3,4.3-4.4,4.3s-4.4-1.4-4.4-4.3v-5.9h2.6v6c0,1.3,0.5,2,1.8,2s1.8-0.7,1.8-2v-6h2.6
				L139.5,16z"/>
			<path class="st0" d="M149.2,12.3h-3v7.8h-2.6v-7.8h-3v-2.2h8.6L149.2,12.3z"/>
			<path class="st0" d="M152.4,16.7c0.1,1.2,0.8,1.5,1.9,1.5c0.8,0,1.6-0.3,1.6-1s-1.4-1-2.9-1.5c-1.4-0.4-2.9-1.1-2.9-2.9
				c0-2.2,2.2-3,4.1-3s4,1,4,3.2h-2.6c0-0.9-0.8-1.2-1.6-1.2c-0.6,0-1.3,0.2-1.3,0.9s1.4,0.9,2.9,1.3s2.9,1.1,2.9,2.9
				c0,2.5-2.2,3.4-4.4,3.4s-4.3-1-4.3-3.6L152.4,16.7z"/>
			<path class="st0" d="M164.2,9.9c3.1,0,4.9,2.3,4.9,5.2s-1.8,5.2-4.9,5.2s-4.9-2.3-4.9-5.2S161.1,9.9,164.2,9.9z M164.2,18.1
				c1.7,0,2.3-1.5,2.3-3s-0.6-3-2.3-3s-2.3,1.5-2.3,3S162.6,18.1,164.2,18.1z"/>
			<path class="st0" d="M178.5,12.3h-3v7.8h-2.6v-7.8h-3v-2.2h8.6L178.5,12.3z"/>
			<path class="st0" d="M57.4,26.5h-2.8v-1h6.8v1h-2.9v7.6h-1.1V26.5z"/>
			<path class="st0" d="M62.2,25.5h1v3.3l0,0c0.4-0.7,1.2-1.1,2-1c1.6,0,2.1,0.9,2.1,2.3v4.1h-1v-4.2c0-0.6-0.4-1.2-1.1-1.3
				c-0.1,0-0.1,0-0.2,0c-1-0.1-1.8,0.7-1.8,1.6c0,0.1,0,0.2,0,0.3v3.5h-1L62.2,25.5z"/>
			<path class="st0" d="M74.2,32.1c-0.2,1.3-1.4,2.2-2.7,2.1c-2,0-2.9-1.4-3-3.3c-0.1-1.7,1.1-3.1,2.8-3.2c0.1,0,0.1,0,0.2,0
				c2.2,0,2.9,2,2.8,3.5h-4.6c-0.1,1,0.6,1.9,1.6,2c0.1,0,0.2,0,0.3,0c0.8,0.1,1.5-0.5,1.6-1.2L74.2,32.1z M73.2,30.4
				c0-1-0.8-1.8-1.8-1.8c-1,0-1.8,0.8-1.8,1.8H73.2z"/>
			<path class="st0" d="M78.8,25.5h1.6l2.7,7.2l2.7-7.2h1.6v8.6h-1.1V27l0,0l-2.7,7.1h-1L80,27l0,0v7.1h-1.2V25.5z"/>
			<path class="st0" d="M94.3,34.1h-1v-1l0,0c-0.4,0.7-1.2,1.2-2,1.1c-1.6,0-2.1-0.9-2.1-2.3v-4.1h1v4.2c0,0.6,0.4,1.2,1.1,1.3
				c0.1,0,0.1,0,0.2,0c1,0.1,1.8-0.7,1.8-1.6c0-0.1,0-0.2,0-0.3v-3.5h1L94.3,34.1z"/>
			<path class="st0" d="M96.4,32.1c0,0.9,0.8,1.2,1.7,1.2c0.6,0,1.5-0.1,1.5-0.9s-1-0.9-2-1.1s-2-0.6-2-1.8s1.2-1.8,2.3-1.8
				c1.4,0,2.5,0.4,2.5,1.9h-1c-0.1-0.8-0.8-1-1.4-1s-1.3,0.2-1.3,0.8s1.1,0.9,2,1.1s2,0.6,2,1.8c0,1.5-1.4,2-2.6,2s-2.6-0.6-2.6-2.1
				L96.4,32.1z"/>
			<path class="st0" d="M107.1,32.1c-0.2,1.3-1.4,2.2-2.7,2.1c-2,0-2.9-1.4-3-3.3c-0.1-1.7,1.1-3.1,2.8-3.2c0,0,0.1,0,0.2,0
				c2.2,0,2.9,2,2.8,3.5h-4.6c-0.1,1,0.6,1.9,1.6,2c0.1,0,0.2,0,0.3,0c0.8,0.1,1.5-0.5,1.6-1.2L107.1,32.1z M106.1,30.4
				c0-1-0.8-1.8-1.8-1.8c-1,0-1.8,0.8-1.8,1.8H106.1z"/>
			<path class="st0" d="M113.4,34.1h-1v-1l0,0c-0.4,0.7-1.2,1.2-2,1.1c-1.6,0-2.1-0.9-2.1-2.3v-4.1h1v4.2c0,0.6,0.4,1.2,1.1,1.3
				c0.1,0,0.1,0,0.2,0c1,0.1,1.8-0.7,1.8-1.6c0-0.1,0-0.2,0-0.3v-3.5h1L113.4,34.1z"/>
			<path class="st0" d="M114.9,27.9h1v0.9l0,0c0.4-0.7,1.2-1.1,2-1c0.7-0.1,1.4,0.4,1.7,1c0.4-0.7,1.2-1.1,1.9-1
				c1.2,0,2.1,0.5,2.1,1.8v4.5h-1V30c0-0.8-0.2-1.4-1.2-1.4c-0.8-0.1-1.5,0.5-1.6,1.4c0,0.1,0,0.1,0,0.2v3.9h-1V30
				c0-0.8-0.3-1.4-1.2-1.4c-0.9,0-1.6,0.7-1.7,1.6v3.9h-1L114.9,27.9z"/>
			<path class="st0" d="M131.1,27.8c1.6,0,3,1.2,3,2.9c0,0.1,0,0.3,0,0.4c0,1.7-1.3,3-3,3s-3-1.3-3-3c-0.2-1.6,1-3.1,2.6-3.2
				C130.9,27.8,131,27.8,131.1,27.8z M131.1,33.4c1.1,0,1.9-0.8,1.9-2.3s-0.9-2.4-1.9-2.4s-1.9,0.8-1.9,2.4
				C129.2,32.5,130.1,33.3,131.1,33.4L131.1,33.4z"/>
			<path class="st0" d="M135.8,28.8h-1v-0.9h1V27c0-1,0.6-1.5,1.7-1.5c0.2,0,0.4,0,0.7,0.1v0.9c-0.2-0.1-0.4-0.1-0.6-0.1
				c-0.5,0-0.8,0.2-0.8,0.7v0.9h1.2v0.9h-1.2v5.3h-1L135.8,28.8z"/>
			<path class="st0" d="M143.7,27.9h1.2v0.9h-1.2v3.9c0,0.5,0.1,0.5,0.8,0.5h0.5v0.9h-0.8c-1.1,0-1.5-0.2-1.5-1.4v-3.9h-1.1v-0.9
				h1.1V26h1L143.7,27.9z"/>
			<path class="st0" d="M146,25.5h1v3.3l0,0c0.4-0.7,1.2-1.1,2-1c1.6,0,2.1,0.9,2.1,2.3v4.1h-1v-4.2c0-0.6-0.4-1.2-1.1-1.3
				c-0.1,0-0.1,0-0.2,0c-1-0.1-1.8,0.6-1.9,1.6c0,0.1,0,0.2,0,0.3v3.5h-1V25.5z"/>
			<path class="st0" d="M158,32.1c-0.2,1.3-1.4,2.2-2.6,2.1c-2,0-2.9-1.4-3-3.3c-0.1-1.7,1.1-3.1,2.8-3.2c0.1,0,0.1,0,0.2,0
				c2.2,0,2.9,2,2.8,3.5h-4.6c-0.1,1,0.6,1.9,1.6,2c0.1,0,0.2,0,0.3,0c0.8,0.1,1.5-0.4,1.6-1.2H158z M157,30.4c0-1-0.8-1.8-1.8-1.8
				c-1,0-1.8,0.8-1.8,1.8H157z"/>
			<path class="st0" d="M59.8,44c0.1,1.2-0.8,2.3-2.1,2.4c-0.2,0-0.3,0-0.5,0c-1.2,0.1-2.4-0.8-2.5-2c0-0.2,0-0.3,0-0.5v-0.5H56v0.4
				c0,1,0.3,1.7,1.4,1.7s1.4-0.6,1.4-1.5v-6.3h1.1L59.8,44z"/>
			<path class="st0" d="M66.8,44.1c-0.2,1.3-1.4,2.2-2.7,2.1c-2,0-2.9-1.4-3-3.3c-0.1-1.7,1.1-3.1,2.8-3.2c0.1,0,0.1,0,0.2,0
				c2.2,0,2.9,2,2.8,3.5h-4.6c-0.1,1,0.6,1.9,1.6,2c0.1,0,0.2,0,0.3,0c0.8,0.1,1.5-0.5,1.6-1.2L66.8,44.1z M65.8,42.4
				c0-1-0.8-1.8-1.8-1.8c-1,0-1.8,0.8-1.8,1.8H65.8z"/>
			<path class="st0" d="M74.1,46.1h-1.1l-1.3-4.9l0,0l-1.3,4.9h-1.1l-2-6.2h1.1L70,45l0,0l1.3-5.1h1.1l1.3,5.1l0,0l1.4-5.1h1.1
				L74.1,46.1z"/>
			<path class="st0" d="M78.2,38.8h-1v-1.2h1V38.8z M77.2,39.9h1v6.2h-1V39.9z"/>
			<path class="st0" d="M80.4,44.1c0,0.9,0.8,1.2,1.7,1.2c0.6,0,1.5-0.1,1.5-0.9s-1-0.9-2-1.2s-2-0.6-2-1.8s1.2-1.8,2.3-1.8
				c1.4,0,2.5,0.4,2.5,1.9h-1c-0.1-0.8-0.8-1-1.4-1s-1.3,0.2-1.3,0.8s1.1,0.8,2,1.1s2,0.6,2,1.8c0,1.5-1.4,2-2.6,2s-2.6-0.6-2.6-2.1
				L80.4,44.1z"/>
			<path class="st0" d="M85.8,37.5h1v3.3l0,0c0.4-0.7,1.2-1.1,2-1c1.6,0,2.1,0.9,2.1,2.3v4.1h-1v-4.2c0-0.6-0.4-1.2-1.1-1.3
				c-0.1,0-0.1,0-0.2,0c-1-0.1-1.8,0.7-1.8,1.6c0,0.1,0,0.2,0,0.3v3.5h-1L85.8,37.5z"/>
			<path class="st0" d="M95.9,37.5h3.8c1.3-0.2,2.5,0.7,2.6,2c0,0.2,0,0.3,0,0.5c0.1,1.3-0.8,2.4-2.1,2.5c-0.2,0-0.3,0-0.5,0h-2.6
				v3.5h-1.1V37.5z M97.1,41.6h2.2c1.3,0,1.9-0.5,1.9-1.6s-0.6-1.6-1.9-1.6h-2.2V41.6z"/>
			<path class="st0" d="M108.8,44.1c-0.2,1.3-1.4,2.2-2.7,2.1c-2,0-2.9-1.4-3-3.3c-0.1-1.7,1.1-3.1,2.8-3.2c0,0,0.1,0,0.2,0
				c2.2,0,2.9,2,2.8,3.5h-4.6c-0.1,1,0.6,1.9,1.6,2c0.1,0,0.2,0,0.3,0c0.8,0.1,1.5-0.5,1.6-1.2L108.8,44.1z M107.8,42.4
				c0-1-0.8-1.8-1.8-1.8c-1,0-1.8,0.8-1.8,1.8H107.8z"/>
			<path class="st0" d="M112.7,39.8c1.6,0,3,1.2,3,2.9c0,0.1,0,0.3,0,0.4c0,1.7-1.3,3-3,3s-3-1.3-3-3c-0.2-1.6,1-3.1,2.6-3.2
				C112.4,39.8,112.5,39.8,112.7,39.8z M112.7,45.4c1.1,0,1.9-0.8,1.9-2.3s-0.9-2.3-1.9-2.3s-1.9,0.8-1.9,2.3S111.6,45.3,112.7,45.4
				L112.7,45.4z"/>
			<path class="st0" d="M116.9,39.9h1v0.8l0,0c0.4-0.7,1.2-1.1,2-1c1.9,0,2.8,1.5,2.8,3.3s-0.9,3.2-2.8,3.2c-0.8,0-1.5-0.4-2-1l0,0
				v3.2h-1L116.9,39.9z M119.8,40.7c-1.4,0-1.9,1.2-1.9,2.3s0.6,2.3,2,2.3s1.9-1.2,1.9-2.4S121.1,40.7,119.8,40.7z"/>
			<path class="st0" d="M124,37.5h1v8.6h-1V37.5z"/>
			<path class="st0" d="M131.9,44.1c-0.2,1.3-1.4,2.2-2.6,2.1c-2,0-2.9-1.4-3-3.3c-0.1-1.7,1.1-3.1,2.8-3.2c0,0,0.1,0,0.2,0
				c2.2,0,2.9,2,2.8,3.5h-4.6c-0.1,1,0.6,1.9,1.6,2c0.1,0,0.2,0,0.3,0c0.8,0.1,1.5-0.5,1.6-1.2L131.9,44.1z M130.9,42.4
				c0-1-0.8-1.8-1.8-1.8c-1,0-1.8,0.8-1.8,1.8H130.9z"/>
		</g>
		<path class="st1" d="M24.3,55.8l-2.5-4.3c1.5-0.9,3.4-0.9,4.9,0L24.3,55.8"/>
		<path class="st2" d="M2.4,18L0,13.8h4.9c0,0.9-0.2,1.7-0.7,2.5C3.8,17,3.2,17.6,2.4,18"/>
		<polyline class="st3" points="9.7,42.2 5.8,42.2 6.4,39 9.1,38.3 9.7,42.2 		"/>
		<polyline class="st3" points="7.3,26.4 3.7,20.1 7.9,20.5 7.3,26.4 		"/>
		<polyline class="st1" points="0,42.2 2.3,38.3 5.1,39.1 4.5,42.2 0,42.2 		"/>
		<path class="st3" d="M21.1,5.3l3-5.3c1.6,2.7,2.4,4.1,2.4,4.1C25.9,4.3,21.1,5.3,21.1,5.3"/>
		<polyline class="st4" points="7.2,33.3 5.7,32.4 8.1,28.1 8.9,29.3 7.2,33.3 		"/>
		<polyline class="st4" points="43.4,22.3 40.8,21.7 42.2,17.4 45.7,18.2 43.4,22.3 		"/>
		<polyline class="st3" points="19.6,47.6 18.5,45.7 21.5,43.4 23.6,46.9 19.6,47.6 		"/>
		<path class="st1" d="M18,44.9l-1.5-2.6h4.9L18,44.9"/>
		<polyline class="st3" points="40.3,27.5 38.2,23.9 40.4,22.7 42.8,23.2 40.3,27.5 		"/>
		<polyline class="st2" points="27.4,50.2 25.5,49.5 24.9,46.5 29.3,47 27.4,50.2 		"/>
		<polyline class="st3" points="48.5,42.2 44.7,42.2 46,37.9 48.5,42.2 		"/>
		<polyline class="st2" points="18.1,10.6 20.3,6.7 24,5.9 22,10.5 18.1,10.6 		"/>
		<path class="st2" d="M42.4,37.5l-3.5-3.7l4.7,0.2l1.8,3L42.4,37.5"/>
		<polyline class="st1" points="28.2,11.9 24.4,8.4 25.6,5.7 27.3,5.4 30.1,10.3 28.2,11.9 		"/>
		<polyline class="st3" points="41,17.2 38.2,17.2 39.2,13.8 42.1,13.8 41,17.2 		"/>
		<polyline class="st5" points="39.8,39.8 38.2,39.4 38.5,34.9 42,38.6 39.8,39.8 		"/>
		<polyline class="st2" points="16.8,31 13.4,29.2 16,25 18.7,26.8 16.8,31 		"/>
		<path class="st2" d="M18.7,39l-2.2-2.8c1.2-0.8,3.5-2.1,3.5-2.1l1.9,1.2L18.7,39"/>
		<path class="st1" d="M15,35.9l0.6-4.3c0.5,0.2,3.4,1.9,3.4,1.9C18.5,33.8,15,35.9,15,35.9"/>
		<polyline class="st3" points="10.5,29.8 8.8,26.8 11.6,22.1 13.5,27.2 10.5,29.8 		"/>
		<polyline class="st5" points="21.1,23.2 18.7,20.7 22.5,18.1 23.5,22.5 21.1,23.2 		"/>
		<polyline class="st2" points="27.4,22.6 24.3,20.6 23.1,15.5 26,14.8 27.4,22.6 		"/>
		<polyline class="st5" points="29.8,25.8 28.2,21.4 33.4,21.4 29.8,25.8 		"/>
		<polyline class="st4" points="37.1,39.4 34.3,38.4 36.9,33.7 37.1,39.4 		"/>
		<polyline class="st1" points="39.6,28.6 35.9,28.1 37.2,24.5 39.6,28.6 		"/>
		<polyline class="st5" points="36.3,32.6 33.1,31.4 31.5,28.1 38,29.7 36.3,32.6 		"/>
		<polyline class="st4" points="14.2,25.9 12.7,21.9 15.2,18.8 17.3,20.9 14.2,25.9 		"/>
		<polyline class="st2" points="12.3,20.5 12.1,13.8 13.5,13.8 15.4,16.5 12.3,20.5 		"/>
		<polyline class="st2" points="15.3,42.2 10.7,42.2 10.2,38.9 15.3,42.2 		"/>
		<polyline class="st3" points="16.8,16.5 15.4,15.3 17.4,11.8 20.5,11.7 16.8,16.5 		"/>
		<polyline class="st3" points="12.6,39.1 10.4,37.7 11.5,33.8 14.3,35.4 12.6,39.1 		"/>
		<polyline class="st5" points="6.6,37.7 9.5,30.4 10.8,32.6 9.5,36.9 6.6,37.7 		"/>
		<path class="st2" d="M21.1,50.2l-1-1.6l3.8-0.6c0,0,0.2,0.8,0.4,1.5L21.1,50.2"/>
		<path class="st5" d="M24.8,45.6l-2.1-2.1c0.6-0.7,1.1-1.5,1.3-2.4l2.9,0.1C26.9,43,26.2,44.6,24.8,45.6"/>
		<polyline class="st1" points="43.5,42.2 41.3,42.2 40.6,40.8 44.4,38.4 43.5,42.2 		"/>
		<path class="st3" d="M43.1,32.9l-5.5-0.3c0.2-0.4,1.4-2.4,1.4-2.4l2.2-0.6L43.1,32.9"/>
		<polyline class="st2" points="40.1,42.2 33,42.2 34.8,39.7 39.3,40.8 40.1,42.2 		"/>
		<polyline class="st3" points="31.9,42.4 27.5,40.7 30.1,36.8 33.5,39.7 31.9,42.4 		"/>
		<polyline class="st1" points="24.5,40.2 23.6,35.3 28.8,36.2 27.4,38.8 24.5,40.2 		"/>
		<path class="st3" d="M22.1,41.7l-3-1.7l2.9-3.4c0.6,0.6,1,1.4,1.1,2.3v0.1C23.2,39.9,22.9,40.9,22.1,41.7"/>
		<polyline class="st2" points="5.4,38 2.9,37.2 5.1,33.4 6.9,34.4 5.4,38 		"/>
		<path class="st4" d="M29.8,46.1l-3-0.4c0.9-1,1.4-2.3,1.5-3.7l3.1,1.2L29.8,46.1"/>
		<polyline class="st4" points="19.1,41.2 15.8,41.2 13.6,39.7 15.5,36.8 19.1,41.2 		"/>
		<path class="st4" d="M14.2,34.1c-1.7-0.3-2.8-1.8-2.6-3.5c0.1-0.4,0.2-0.7,0.3-1l0.7,0.4l2,1.1L14.2,34.1"/>
		<polyline class="st5" points="39.5,22.4 38.1,22.1 36,18.4 40.8,18.4 39.5,22.4 		"/>
		<polyline class="st4" points="26.9,27.4 22.3,24.3 25.1,22.6 28.3,24.7 28.8,26.4 26.9,27.4 		"/>
		<polyline class="st2" points="23.2,29.6 19.9,27.3 22.7,25.8 26,28 23.2,29.6 		"/>
		<path class="st1" d="M29.1,31.5h-0.3c-1.4-0.1-2.7-0.7-3.6-1.8l4.1-2.3l1.8,3.6C30.5,31.3,29.8,31.5,29.1,31.5"/>
		<polyline class="st5" points="22.3,14.5 21,13.3 23.9,9.5 27.2,12.6 26,13.7 22.3,14.5 		"/>
		<path class="st4" d="M34.6,27.8l-4.3-1.1l3.2-3.3C34.8,24.5,35.2,26.2,34.6,27.8"/>
		<path class="st2" d="M35.6,24.9c-0.1-0.4-0.3-0.8-0.5-1.1c-0.3-0.4-0.6-0.8-1-1.2l1.1-3.4l2,3.5L35.6,24.9"/>
		<path class="st2" d="M28.8,20.2h-0.9l-0.6-3.7l2.6,0.7C29.2,18.1,28.8,19.1,28.8,20.2"/>
		<polyline class="st2" points="46.3,17.1 42.6,16.2 43.4,13.8 48.3,13.8 46.3,17.1 		"/>
		<polyline class="st3" points="19.7,26.2 16.7,24.2 18.1,21.7 21.7,25.1 19.7,26.2 		"/>
		<polyline class="st1" points="18,19.9 16.5,18.6 20,14 22,16 22.2,17 18,19.9 		"/>
		<polyline class="st2" points="34.4,36.2 31.9,32.1 35.9,33.5 34.4,36.2 		"/>
		<path class="st5" d="M33.1,37.9l-2.4-2l0.4-2.8c1.3,0.9,2.1,2.4,2.1,4C33.2,37.3,33.1,37.6,33.1,37.9"/>
		<polyline class="st5" points="22.3,34.1 17.8,31.6 19.3,28.2 25.1,31.6 22.3,34.1 		"/>
		<polyline class="st4" points="9.4,17.8 6.3,13.8 11.2,13.8 11.3,16.2 9.4,17.8 		"/>
		<polyline class="st1" points="7.6,19.3 3.2,18.9 6.2,15.3 8.4,18.6 7.6,19.3 		"/>
		<polyline class="st5" points="8.9,24.8 8.6,24.4 9,19.5 11.3,17.7 11.4,20.6 8.9,24.8 		"/>
		<polyline class="st3" points="29.7,35.2 23.8,34.3 26,32.1 30.2,32.5 29.7,35.2 		"/>
		<polyline class="st1" points="37.1,17.2 35,17.1 33.2,13.8 38.2,13.8 37.1,17.2 		"/>
		<path class="st3" d="M33.8,20.4h-4l0,0c0-2.1,1.6-3.8,3.7-4l1.1,1.8l-0.7,2.3"/>
		<path class="st4" d="M30.8,16.4l-3.5-0.9l-0.2-1.1c1.9-1.6,3.6-3,3.6-3l2.2,4c-0.6,0.1-1.1,0.3-1.6,0.6
			C31.2,16.2,31,16.3,30.8,16.4"/>
	</g>
</g>
</svg>
