<svg viewBox="0 0 170.42 55.76" id="shape-logo-he" width="100%" height="100%">
    <g id="logo-he-Layer_2" data-name="Layer 2">
        <g id="logo-he-Open">
            <path d="M146.19,55.76l-2.47-4.25a4.93,4.93,0,0,1,4.89,0l-2.42,4.25" style="fill:#f5a934"></path>
            <path d="M124.32,18l-2.44-4.23h4.91a5,5,0,0,1-.68,2.46A4.87,4.87,0,0,1,124.32,18"
                  style="fill:#46bccc"></path>
            <polyline points="131.56 42.2 127.67 42.2 128.24 39.01 131 38.26 131.56 42.2"
                      style="fill:#b8311a"></polyline>
            <polyline points="129.19 26.4 125.55 20.11 129.75 20.49 129.19 26.4" style="fill:#b8311a"></polyline>
            <polyline points="121.91 42.2 124.17 38.27 126.96 39.13 126.42 42.2 121.91 42.2"
                      style="fill:#f5a934"></polyline>
            <path d="M143,5.28,146,0c1.56,2.65,2.36,4.13,2.36,4.13-.57.14-5.38,1.15-5.38,1.15"
                  style="fill:#b8311a"></path>
            <polyline points="129.12 33.27 127.54 32.38 130 28.08 130.74 29.3 129.12 33.27"
                      style="fill:#232f80"></polyline>
            <polyline points="165.28 22.27 162.7 21.72 164.07 17.39 167.62 18.2 165.28 22.27"
                      style="fill:#232f80"></polyline>
            <polyline points="141.47 47.61 140.38 45.71 143.36 43.43 145.5 46.94 141.47 47.61"
                      style="fill:#b8311a"></polyline>
            <path d="M139.91,44.89l-1.51-2.61h4.86l-3.35,2.61" style="fill:#f5a934"></path>
            <polyline points="162.18 27.55 160.02 23.87 162.28 22.67 164.69 23.19 162.18 27.55"
                      style="fill:#b8311a"></polyline>
            <polyline points="149.3 50.25 147.42 49.47 146.73 46.52 151.13 47.05 149.3 50.25"
                      style="fill:#46bccc"></polyline>
            <polyline points="170.43 42.22 166.54 42.22 167.9 37.87 170.43 42.22" style="fill:#b8311a"></polyline>
            <polyline points="139.99 10.6 142.19 6.7 145.9 5.91 143.84 10.51 139.99 10.6"
                      style="fill:#46bccc"></polyline>
            <path d="M164.32,37.46l-3.51-3.69,4.74.15,1.78,3-3,.5" style="fill:#46bccc"></path>
            <polyline points="150.09 11.89 146.29 8.36 147.48 5.75 149.19 5.4 151.98 10.27 150.09 11.89"
                      style="fill:#f5a934"></polyline>
            <polyline points="162.85 17.23 160.03 17.19 161.08 13.79 163.95 13.79 162.85 17.23"
                      style="fill:#b8311a"></polyline>
            <polyline points="161.66 39.83 160.06 39.42 160.35 34.88 163.9 38.62 161.66 39.83"
                      style="fill:#c4e3e7"></polyline>
            <polyline points="138.71 31.03 135.3 29.17 137.89 25.01 140.53 26.79 138.71 31.03"
                      style="fill:#46bccc"></polyline>
            <path d="M140.54,39l-2.24-2.77c1.16-.75,3.54-2.12,3.54-2.12l1.9,1.18L140.54,39" style="fill:#46bccc"></path>
            <path d="M136.9,35.91l.59-4.32c.48.24,3.39,1.92,3.39,1.92-.47.27-4,2.4-4,2.4" style="fill:#f5a934"></path>
            <polyline points="132.42 29.77 130.69 26.84 133.47 22.07 135.39 27.2 132.42 29.77"
                      style="fill:#b8311a"></polyline>
            <polyline points="143.03 23.21 140.53 20.75 144.4 18.08 145.39 22.46 143.03 23.21"
                      style="fill:#c4e3e7"></polyline>
            <polyline points="149.25 22.65 146.19 20.58 144.98 15.51 147.84 14.85 149.25 22.65"
                      style="fill:#46bccc"></polyline>
            <polyline points="151.7 25.81 150.05 21.36 155.29 21.43 151.7 25.81" style="fill:#c4e3e7"></polyline>
            <polyline points="158.99 39.44 156.13 38.42 158.77 33.74 158.99 39.44" style="fill:#232f80"></polyline>
            <polyline points="161.49 28.59 157.76 28.08 159.1 24.46 161.49 28.59" style="fill:#f5a934"></polyline>
            <polyline points="158.22 32.56 154.95 31.39 153.33 28.09 159.84 29.69 158.22 32.56"
                      style="fill:#c4e3e7"></polyline>
            <polyline points="136.08 25.91 134.6 21.88 137.04 18.76 139.14 20.87 136.08 25.91"
                      style="fill:#232f80"></polyline>
            <polyline points="134.21 20.51 134.03 13.76 135.41 13.76 137.3 16.51 134.21 20.51"
                      style="fill:#46bccc"></polyline>
            <polyline points="137.14 42.2 132.55 42.2 132.06 38.9 137.14 42.2" style="fill:#46bccc"></polyline>
            <polyline points="138.67 16.47 137.28 15.3 139.31 11.76 142.39 11.73 138.67 16.47"
                      style="fill:#b8311a"></polyline>
            <polyline points="134.53 39.12 132.25 37.66 133.41 33.77 136.18 35.44 134.53 39.12"
                      style="fill:#b8311a"></polyline>
            <polyline points="128.45 37.69 131.38 30.4 132.64 32.62 131.38 36.89 128.45 37.69"
                      style="fill:#c4e3e7"></polyline>
            <path d="M143,50.23l-1-1.64,3.77-.62s.18.78.36,1.53l-3.17.73" style="fill:#46bccc"></path>
            <path d="M146.66,45.64l-2.08-2.11a5.81,5.81,0,0,0,1.28-2.4l2.94.11a5.55,5.55,0,0,1-2.14,4.4"
                  style="fill:#c4e3e7"></path>
            <polyline points="165.37 42.22 163.2 42.22 162.45 40.8 166.3 38.39 165.37 42.22"
                      style="fill:#f5a934"></polyline>
            <path d="M165,32.89l-5.47-.26c.17-.37,1.36-2.42,1.36-2.42l2.18-.64L165,32.89" style="fill:#b8311a"></path>
            <polyline points="161.95 42.22 154.87 42.2 156.67 39.66 161.2 40.82 161.95 42.22"
                      style="fill:#46bccc"></polyline>
            <polyline points="153.82 42.37 149.41 40.7 151.96 36.77 155.39 39.7 153.82 42.37"
                      style="fill:#b8311a"></polyline>
            <polyline points="146.35 40.16 145.49 35.29 150.65 36.16 149.24 38.77 146.35 40.16"
                      style="fill:#f5a934"></polyline>
            <path d="M144,41.66l-3-1.69L144,36.54a3.42,3.42,0,0,1,1.11,2.26v.08A3.64,3.64,0,0,1,144,41.66"
                  style="fill:#b8311a"></path>
            <polyline points="127.33 37.97 124.79 37.21 126.99 33.39 128.81 34.39 127.33 37.97"
                      style="fill:#46bccc"></polyline>
            <path d="M151.68,46.11l-3-.41A5.79,5.79,0,0,0,150.15,42l3.15,1.18-1.63,2.89" style="fill:#232f80"></path>
            <polyline points="140.98 41.2 137.72 41.2 135.44 39.71 137.35 36.77 140.98 41.2"
                      style="fill:#232f80"></polyline>
            <path d="M136.1,34.12a3.07,3.07,0,0,1-2.21-4.52l.7.38,2,1.08-.45,3.06" style="fill:#232f80"></path>
            <polyline points="161.33 22.36 159.98 22.07 157.86 18.36 162.66 18.42 161.33 22.36"
                      style="fill:#c4e3e7"></polyline>
            <polyline points="148.75 27.43 144.21 24.31 147.01 22.56 150.14 24.66 150.71 26.41 148.75 27.43"
                      style="fill:#232f80"></polyline>
            <polyline points="145.07 29.56 141.74 27.35 144.54 25.83 147.87 27.99 145.07 29.56"
                      style="fill:#46bccc"></polyline>
            <path d="M151,31.52h-.26a4.87,4.87,0,0,1-3.56-1.83l4.15-2.3,1.8,3.64a4.83,4.83,0,0,1-2.13.5"
                  style="fill:#f5a934"></path>
            <polyline points="144.15 14.51 142.85 13.33 145.77 9.47 149.07 12.62 147.84 13.68 144.15 14.51"
                      style="fill:#c4e3e7"></polyline>
            <path d="M156.51,27.78l-4.33-1.06,3.21-3.33a4,4,0,0,1,1.11,4.39" style="fill:#232f80"></path>
            <path d="M157.49,24.91a4.33,4.33,0,0,0-.47-1.1,4.82,4.82,0,0,0-1-1.17l1.08-3.41,2.05,3.53-1.71,2.15"
                  style="fill:#46bccc"></path>
            <path d="M150.67,20.2h-.9l-.65-3.69,2.61.7a4.73,4.73,0,0,0-1.06,3" style="fill:#46bccc"></path>
            <polyline points="168.22 17.11 164.5 16.25 165.25 13.8 170.13 13.8 168.22 17.11"
                      style="fill:#46bccc"></polyline>
            <polyline points="141.57 26.18 138.54 24.16 140.02 21.68 143.53 25.08 141.57 26.18"
                      style="fill:#b8311a"></polyline>
            <polyline points="139.89 19.95 138.4 18.57 141.86 14.03 143.92 16 144.1 17 139.89 19.95"
                      style="fill:#f5a934"></polyline>
            <polyline points="156.26 36.17 153.75 32.06 157.78 33.49 156.26 36.17" style="fill:#46bccc"></polyline>
            <path d="M154.94,37.87l-2.42-2.05L153,33a4.76,4.76,0,0,1,2.09,4,4.7,4.7,0,0,1-.11.94"
                  style="fill:#c4e3e7"></path>
            <polyline points="144.13 34.12 139.72 31.6 141.18 28.22 146.95 31.62 144.13 34.12"
                      style="fill:#c4e3e7"></polyline>
            <polyline points="131.24 17.85 128.23 13.76 133.1 13.76 133.2 16.23 131.24 17.85"
                      style="fill:#232f80"></polyline>
            <polyline points="129.42 19.31 125.09 18.94 128.09 15.31 130.31 18.58 129.42 19.31"
                      style="fill:#f5a934"></polyline>
            <polyline points="130.77 24.81 130.48 24.37 130.92 19.55 133.16 17.68 133.24 20.56 130.77 24.81"
                      style="fill:#c4e3e7"></polyline>
            <polyline points="151.56 35.24 145.69 34.28 147.91 32.06 152.05 32.52 151.56 35.24"
                      style="fill:#b8311a"></polyline>
            <polyline points="159.02 17.18 156.83 17.15 155.08 13.78 160.08 13.79 159.02 17.18"
                      style="fill:#f5a934"></polyline>
            <path d="M155.72,20.43l-4,0h0a4.06,4.06,0,0,1,3.68-4l1.07,1.82-.71,2.28" style="fill:#b8311a"></path>
            <path d="M152.71,16.45l-3.52-.92L149,14.39c1.87-1.57,3.65-3,3.65-3l2.27,4.07a4.81,4.81,0,0,0-1.6.58,4.17,4.17,0,0,0-.61.42"
                  style="fill:#232f80"></path>
            <path d="M77.25,44.89H76V33h1.2V44.89M52,42.83V41.74L54.2,41C52.84,36.57,51.6,33,51.6,33H53c.52,1.8,1.57,5.27,2.2,7.55,1.93-.86,2.63-2.28,2.63-4.45V33H59v2.69c0,2.67-.79,4-2.06,4.94a12,12,0,0,1-2.32,1.18c-.8.32-1.68.61-2.63,1M110.23,42a5,5,0,0,1-1.55-.22v-1a3.81,3.81,0,0,0,1.5.22c1.67,0,2.44-1.5,2.44-3.92,0-1-.57-3.31-2.46-3.31-2.11,0-3.05,3.25-3.24,4.67,0,.09-.23,1.92-.45,3.33h-1.21c.32-2,.5-3.42.5-3.42a10,10,0,0,0,.11-1.53,8.81,8.81,0,0,0-.42-2.07c-.19-.62-.33-1.26-.48-1.74h1.3c.19.73.44,1.86.67,2.94.9-2.74,2-3.1,3.36-3.1,2.23,0,3.58,2,3.58,4.17,0,2.84-1.2,5-3.65,5m-7.38-.21h-1.2V33h1.2v8.76m-4.72,0h-1.2V37a3.63,3.63,0,0,1,1.49-3l-2.62,0V33H100V34h-.92a2.82,2.82,0,0,0-1,2.2v5.62m-7.25,0H89.54a61,61,0,0,0-3.65-5.07,3,3,0,0,0-1.36,2.43v2.65H83.34V39.34a3.71,3.71,0,0,1,2.1-3.21c-.69-1-1.45-1.78-2.53-3.11h1.41c.7.89,2,2.42,3.41,4.35a2.3,2.3,0,0,0,1.42-1.95V33h1.2v1.9A3.33,3.33,0,0,1,88.2,38c.93,1.22,1.73,2.27,2.68,3.74m-9.89,0h-1.2V33H81v8.76m-12.54,0h-1.2V36.33c0-1.56-.78-2.55-3-2.55a13.76,13.76,0,0,0-3.14.32v-1a22.67,22.67,0,0,1,3.17-.22c2.42,0,4.17.86,4.17,3.39v5.53m-5.87,0h-1.2V36.86l1.2-.33v5.25m-12.44,0H42.42V33H46.9a3.13,3.13,0,0,1,3.22,3.19v5.56m-6.51-7.84v6.91h5.3v-4.5a2.22,2.22,0,0,0-2.45-2.41H43.62m-8.81,7.84h-1.2V36.33c0-1.56-.78-2.55-3-2.55a13.7,13.7,0,0,0-3.14.32v-1a22.54,22.54,0,0,1,3.17-.22c2.42,0,4.17.86,4.17,3.39v5.53m-5.87,0h-1.2V36.86l1.2-.33v5.25m-7,0h-1.2V36.33c0-1.56-.79-2.55-3-2.55a13.67,13.67,0,0,0-3.13.32v-1a22.39,22.39,0,0,1,3.16-.22c2.43,0,4.18.86,4.18,3.39v5.53m-5.87,0h-1.2V36.86l1.2-.33v5.25m-3.83,0h-1.2V33h1.2v8.76M8,41.78H6.84V34H2.7V33H9.27V34H8v7.82m84.71-3.55V33H94v4.79l-1.2.42M24,38.23V33h1.2v4.79l-1.2.42m-24,0V33H1.2v4.79L0,38.23"
                  style="fill:#333"></path>
            <path d="M27.73,24.22H25.18V18.73a2.28,2.28,0,0,0-.56-1.56,1.9,1.9,0,0,0-1.51-.64H21.7v5.6A2.17,2.17,0,0,1,21,23.89a2.84,2.84,0,0,1-1.9.6,3.69,3.69,0,0,1-1.93-.36V22.44a2,2,0,0,0,.9.23q1.08,0,1.08-1.15V17.31l.27-.77H17.33V14.77h6.48a3.88,3.88,0,0,1,2.9,1,3.76,3.76,0,0,1,1,2.75Z"
                  style="fill:#333"></path>
            <path d="M32.5,24.22H29.95V14.77H32.5Z" style="fill:#333"></path>
            <path d="M43.14,16a7.22,7.22,0,0,1-.25,2.27,3.2,3.2,0,0,1-1.94,1.87Q43,22.83,43,22.87l0,1.35H34.55V22.46h4.07l1,.07L34,14.77h3.08l3,4.16.09,0q.47,0,.47-2V14.77h2.54Z"
                  style="fill:#333"></path>
            <path d="M47.86,24.22H45.3V14.77h2.56Z" style="fill:#333"></path>
            <path d="M59.16,19.54q0,4.91-5.33,4.91-1.46,0-2-.05a4.42,4.42,0,0,1-1.57-.49V22.06a7,7,0,0,0,3.4.61q2.86,0,2.86-3.13,0-3.33-2.25-3.33a2.18,2.18,0,0,0-1.3.36,1.36,1.36,0,0,0-.59,1.19q0,1.33,1.22,1.33a2.38,2.38,0,0,0,.4,0v1.46a5.17,5.17,0,0,1-.88.07,4.07,4.07,0,0,1-2.14-.5,2.46,2.46,0,0,1-1.17-2.29A2.75,2.75,0,0,1,51,15.43a5.56,5.56,0,0,1,3.29-.86,4.74,4.74,0,0,1,3.59,1.31A5.08,5.08,0,0,1,59.16,19.54Z"
                  style="fill:#333"></path>
            <path d="M71.2,24.22H68.65V18.73a2.28,2.28,0,0,0-.56-1.56,1.9,1.9,0,0,0-1.51-.64h-1.4v5.6a2.17,2.17,0,0,1-.71,1.75,2.84,2.84,0,0,1-1.9.6,3.69,3.69,0,0,1-1.93-.36V22.44a2,2,0,0,0,.9.23q1.08,0,1.08-1.15V17.31l.27-.77H60.8V14.77h6.48a3.88,3.88,0,0,1,2.9,1,3.76,3.76,0,0,1,1,2.75Z"
                  style="fill:#333"></path>
            <path d="M81.95,24.22H79.39v-5.4A2.17,2.17,0,0,0,78.6,17a3.31,3.31,0,0,0-2.14-.64,12.7,12.7,0,0,0-3.13.4V14.93a18.37,18.37,0,0,1,4.07-.31,5.83,5.83,0,0,1,3,.76,2.85,2.85,0,0,1,1.53,2.56Zm-5.85,0H73.52V19l2.57-.5Z"
                  style="fill:#333"></path>
            <path d="M98.4,24.22H95.84V18.73a2.28,2.28,0,0,0-.56-1.56,1.9,1.9,0,0,0-1.51-.64h-1.4v5.6a2.17,2.17,0,0,1-.71,1.75,2.84,2.84,0,0,1-1.9.6,3.69,3.69,0,0,1-1.93-.36V22.44a2,2,0,0,0,.9.23q1.08,0,1.08-1.15V17.31l.27-.77H88V14.77h6.48a3.88,3.88,0,0,1,2.9,1,3.76,3.76,0,0,1,1,2.75Z"
                  style="fill:#333"></path>
            <path d="M103.08,19.68a25,25,0,0,1-2.56.7V14.77h2.56Z" style="fill:#333"></path>
            <path d="M113.34,24.22h-8.48l0-1.76h4.63v-4a1.8,1.8,0,0,0-1-1.67,3.54,3.54,0,0,0-1.73-.41,7.2,7.2,0,0,0-1.89.31V14.91a14.12,14.12,0,0,1,3.1-.29,4.31,4.31,0,0,1,2.88,1,3.31,3.31,0,0,1,1.22,2.66v4.19h1.28Z"
                  style="fill:#333"></path>
        </g>
    </g>
</svg>