<svg xmlns="http://www.w3.org/2000/svg" viewBox="0 0 43.76 26.57"><title>Mail</title><g id="Layer_2" data-name="Layer 2"><g id="Layer_1-2" data-name="Layer 1"><path id="mail" d="M0,5.08l10.94,8.2L0,21.49ZM43.76,23.44a3.13,3.13,0,0,1-3.12,3.13H3.13A3.13,3.13,0,0,1,0,23.44l12.24-9.18,6.83,5.12a4.67,4.67,0,0,0,5.62,0l6.83-5.12,12.24,9.18Zm0-2L32.82,13.28l10.94-8.2Zm-20-3.36a3.13,3.13,0,0,1-1.88.63A3.08,3.08,0,0,1,20,18.13l-6.47-4.85-1.3-1L0,3.13H0A3.13,3.13,0,0,1,3.13,0H40.64a3.13,3.13,0,0,1,3.12,3.13Z" style="fill:#333"/></g></g></svg>