<?xml version="1.0" encoding="UTF-8"?>
<svg width="26px" height="26px" viewBox="0 0 26 26" version="1.1" xmlns="http://www.w3.org/2000/svg" xmlns:xlink="http://www.w3.org/1999/xlink">
    <!-- Generator: Sketch 48.1 (47250) - http://www.bohemiancoding.com/sketch -->
    <title>share copy 4@2x</title>
    <desc>Created with Sketch.</desc>
    <defs>
        <polygon id="path-1" points="0 0.0005 16.2958 0.0005 16.2958 18.0305 0 18.0305"></polygon>
    </defs>
    <g id="icons" stroke="none" stroke-width="1" fill="none" fill-rule="evenodd">
        <g id="share-copy-4">
            <g id="Group" transform="translate(3.000000, 4.000000)">
                <g id="Page-1">
                    <mask id="mask-2" fill="white">
                        <use xlink:href="#path-1"></use>
                    </mask>
                    <g id="Clip-2"></g>
                    <path d="M11.8068,13.4405 L5.3498,9.6855 C5.3968,9.4775 5.4328,9.2675 5.4328,9.0515 C5.4328,8.8355 5.3958,8.6265 5.3498,8.4175 L11.7338,4.6975 C12.2208,5.1485 12.8638,5.4305 13.5778,5.4305 C15.0828,5.4305 16.2958,4.2195 16.2958,2.7155 C16.2958,1.2135 15.0818,0.0005 13.5778,0.0005 C12.0758,0.0005 10.8628,1.2135 10.8628,2.7145 C10.8628,2.9335 10.8998,3.1395 10.9458,3.3485 L4.5618,7.0715 C4.0748,6.6185 3.4318,6.3375 2.7178,6.3375 C1.2128,6.3375 -0.0002,7.5495 -0.0002,9.0515 C-0.0002,10.5535 1.2128,11.7665 2.7178,11.7665 C3.4318,11.7665 4.0748,11.4845 4.5618,11.0345 L11.0068,14.7975 C10.9628,14.9885 10.9338,15.1885 10.9338,15.3875 C10.9338,16.8455 12.1218,18.0305 13.5768,18.0305 C15.0338,18.0305 16.2228,16.8465 16.2228,15.3875 C16.2228,13.9295 15.0348,12.7455 13.5778,12.7455 C12.8908,12.7455 12.2748,13.0155 11.8068,13.4405 Z" id="Fill-1" fill="#47C3D3" mask="url(#mask-2)"></path>
                </g>
            </g>
        </g>
    </g>
</svg>