<?xml version="1.0" encoding="UTF-8"?>
<svg width="26px" height="26px" viewBox="0 0 26 26" version="1.1" xmlns="http://www.w3.org/2000/svg" xmlns:xlink="http://www.w3.org/1999/xlink">
    <!-- Generator: Sketch 48.1 (47250) - http://www.bohemiancoding.com/sketch -->
    <title>share@2x</title>
    <desc>Created with Sketch.</desc>
    <defs>
        <polygon id="path-1" points="0 0 16 0 16 18 0 18"></polygon>
    </defs>
    <g id="icons" stroke="none" stroke-width="1" fill="none" fill-rule="evenodd">
        <g id="share">
            <g id="share-icon" transform="translate(3.000000, 4.000000)">
                <mask id="mask-2" fill="white">
                    <use xlink:href="#path-1"></use>
                </mask>
                <g id="Clip-2"></g>
                <path d="M11.592538,13.4176373 L5.25282278,9.66888519 C5.29896907,9.46123128 5.33431517,9.2515807 5.33431517,9.0359401 C5.33431517,8.8202995 5.29798724,8.61164725 5.25282278,8.40299501 L11.520864,4.68918469 C11.9990182,5.13943428 12.6303387,5.42096506 13.3313697,5.42096506 C14.8090329,5.42096506 16,4.21198003 16,2.71048253 C16,1.2109817 14.8080511,0 13.3313697,0 C11.8566519,0 10.6656848,1.2109817 10.6656848,2.70948419 C10.6656848,2.9281198 10.7020128,3.13377704 10.7471772,3.34242928 L4.47913598,7.05923461 C4.00098184,6.60698835 3.36966127,6.32645591 2.66863034,6.32645591 C1.19096711,6.32645591 0,7.53643927 0,9.0359401 C0,10.5354409 1.19096711,11.7464226 2.66863034,11.7464226 C3.36966127,11.7464226 4.00098184,11.4648918 4.47913598,11.0156406 L10.8070692,14.7723794 C10.7638684,14.9630616 10.7353952,15.1627288 10.7353952,15.3613977 C10.7353952,16.8169717 11.9018164,18 13.3303878,18 C14.7609229,18 15.928326,16.81797 15.928326,15.3613977 C15.928326,13.9058236 14.7619048,12.7237937 13.3313697,12.7237937 C12.6568483,12.7237937 12.0520373,12.9933444 11.592538,13.4176373 Z" id="Fill-1" fill="#47C3D3" mask="url(#mask-2)"></path>
            </g>
        </g>
    </g>
</svg>