<?xml version="1.0" encoding="UTF-8"?>
<svg width="26px" height="26px" viewBox="0 0 26 26" version="1.1" xmlns="http://www.w3.org/2000/svg" xmlns:xlink="http://www.w3.org/1999/xlink">
    <!-- Generator: Sketch 48.1 (47250) - http://www.bohemiancoding.com/sketch -->
    <title>share-whatsapp@2x</title>
    <desc>Created with Sketch.</desc>
    <defs></defs>
    <g id="icons" stroke="none" stroke-width="1" fill="none" fill-rule="evenodd">
        <g id="share-whatsapp" fill="#47C3D3">
            <g id="Group-6-Copy" transform="translate(2.000000, 1.000000)">
                <path d="M5.781875,20.483375 L0,22 L1.54825,16.350125 C0.594,14.697375 0.09075,12.821875 0.092125,10.899625 C0.094875,4.8895 4.98575,0 10.99725,0 C13.913625,0 16.652625,1.13575 18.711,3.196875 C20.769375,5.256625 21.90375,7.995625 21.902375,10.90925 C21.899625,16.919375 17.007375,21.81025 10.99725,21.81025 C9.167125,21.81025 7.374125,21.352375 5.781875,20.483375 Z M1.9331125,10.901 C1.9331125,12.612875 2.4116125,14.28075 3.3191125,15.723125 L3.5349875,16.0655 L2.6192375,19.4095 L6.0498625,18.51025 L6.3798625,18.7055 C7.7713625,19.531875 9.3663625,19.969125 10.9929875,19.969125 C15.9924875,19.969125 20.0583625,15.904625 20.0611125,10.907875 C20.0611125,8.4865 19.1206125,6.210875 17.4087375,4.497625 C15.6968625,2.78575 13.4212375,1.841125 11.0012375,1.841125 C6.0017375,1.841125 1.9344875,5.905625 1.9331125,10.901 Z" id="Combined-Shape"></path>
                <path d="M16.3321125,14.796375 C16.1052375,15.433 15.0162375,16.01325 14.4923625,16.091625 C14.0234875,16.16175 13.4294875,16.190625 12.7763625,15.984375 C12.3803625,15.857875 11.8729875,15.690125 11.2239875,15.409625 C8.4904875,14.229875 6.7043625,11.4785 6.5682375,11.297 C6.4321125,11.1155 5.4558625,9.82025 5.4558625,8.479625 C5.4558625,7.139 6.1598625,6.479 6.4101125,6.20675 C6.6589875,5.9345 6.9546125,5.86575 7.1361125,5.86575 C7.3176125,5.86575 7.4991125,5.867125 7.6586125,5.875375 C7.8263625,5.883625 8.0504875,5.812125 8.2718625,6.342875 C8.4987375,6.88875 9.0432375,8.229375 9.1119875,8.3655 C9.1793625,8.501625 9.2247375,8.661125 9.1339875,8.842625 C9.0432375,9.024125 8.9978625,9.13825 8.8617375,9.29775 C8.7256125,9.455875 8.5757375,9.6525 8.4533625,9.774875 C8.3172375,9.909625 8.1742375,10.058125 8.3337375,10.330375 C8.4932375,10.602625 9.0391125,11.495 9.8489875,12.216875 C10.8898625,13.145 11.7684875,13.432375 12.0407375,13.569875 C12.3129875,13.706 12.4724875,13.682625 12.6306125,13.501125 C12.7901125,13.319625 13.3126125,12.706375 13.4941125,12.43275 C13.6756125,12.1605 13.8571125,12.205875 14.1073625,12.296625 C14.3562375,12.387375 15.6968625,13.046 15.9691125,13.1835 C16.2413625,13.319625 16.4228625,13.387 16.4916125,13.501125 C16.5589875,13.61525 16.5589875,14.15975 16.3321125,14.796375" id="Path"></path>
            </g>
        </g>
    </g>
</svg>