<svg xmlns="http://www.w3.org/2000/svg" xmlns:xlink="http://www.w3.org/1999/xlink" viewBox="0 0 56.83 42.62"><defs><symbol id="Upload1_2" data-name="Upload1 2" viewBox="0 0 56.83 42.62"><path d="M0,29c.13-.62.25-1.24.41-1.86A12.13,12.13,0,0,1,5,20.3,11.92,11.92,0,0,1,10.28,18c.23,0,.38-.08.38-.41a17.41,17.41,0,0,1,2.21-8.5,17.78,17.78,0,0,1,5.31-5.87A17.56,17.56,0,0,1,24.79.37,17.73,17.73,0,0,1,46,19.9c-.05.41-.11.81-.17,1.22,0,0,0,.08,0,.12.73.07,1.45.1,2.16.23a10.31,10.31,0,0,1,8,6.41,18.58,18.58,0,0,1,.71,2.48c0,.19.09.38.13.56V33c-.12.55-.23,1.09-.36,1.63a10.72,10.72,0,0,1-10.17,8c-4.5,0-9,0-13.52,0a8.32,8.32,0,0,1-5.65-2.14,6.72,6.72,0,0,1-2.25-5.11c0-3.63,0-7.26,0-10.89v-.59l-.63.59c-1.08,1.08-2.15,2.17-3.24,3.24a3.51,3.51,0,0,1-.81.64,1.77,1.77,0,0,1-2.22-.6,1.83,1.83,0,0,1,.31-2.32c2-2,4-4,6-6,.33-.33.65-.67,1-1a1.85,1.85,0,0,1,2.75,0c.72.69,1.41,1.4,2.12,2.11l4.87,4.87a1.84,1.84,0,0,1,.32,2.29,1.74,1.74,0,0,1-2.16.66,2.92,2.92,0,0,1-.86-.64Q30.51,25.81,28.67,24a2.07,2.07,0,0,0-.23-.18c0,.21,0,.37,0,.52,0,3.59,0,7.18,0,10.76a3.62,3.62,0,0,0,2.81,3.64,12.53,12.53,0,0,0,2.86.37c3.94,0,7.87,0,11.8,0a7.13,7.13,0,0,0,6-11.32,6.88,6.88,0,0,0-6-2.9c-.63,0-1.27.06-1.9.12a1.81,1.81,0,0,1-2.08-2.31A35.37,35.37,0,0,0,42.58,18a13.15,13.15,0,0,0-2.06-7.67,14.3,14.3,0,0,0-4.05-4.29,14.23,14.23,0,0,0-20.09,4.1,14.32,14.32,0,0,0-2.2,7.51c0,.55,0,1.09,0,1.64a1.81,1.81,0,0,1-1.6,1.93c-.91.18-1.83.27-2.71.52a8.78,8.78,0,0,0-6,10.76,8.94,8.94,0,0,0,5.14,6,6.16,6.16,0,0,0,2.55.56c2.65,0,5.3,0,7.94,0a1.65,1.65,0,0,1,1.59.93A1.72,1.72,0,0,1,21,41.87a1.63,1.63,0,0,1-1.4.72c-2.95,0-5.9.08-8.85,0a9.49,9.49,0,0,1-4.4-1.45A12.43,12.43,0,0,1,1.27,35.7,13.26,13.26,0,0,1,.1,31.76a2.66,2.66,0,0,0-.1-.38Z" style="fill:#666767"/></symbol></defs><title>Upload</title><g id="Layer_2" data-name="Layer 2"><g id="Layer_1-2" data-name="Layer 1"><use width="56.83" height="42.62" xlink:href="#Upload1_2"/></g></g></svg>