<svg xmlns="http://www.w3.org/2000/svg" viewBox="0 0 46.6 46.8"><title>Whatsup</title><g id="Layer_2" data-name="Layer 2"><g id="Layer_1-2" data-name="Layer 1"><path d="M17.6,13.5c-.44-1-.89-1-1.31-1H15.18a2.12,2.12,0,0,0-1.54.73,6.46,6.46,0,0,0-2,4.83c0,2.85,2.07,5.61,2.36,6s4,6.42,9.91,8.75c4.89,1.93,5.89,1.54,7,1.45s3.43-1.41,3.92-2.76a4.8,4.8,0,0,0,.33-2.76c-.14-.24-.53-.38-1.11-.67s-3.43-1.69-4-1.89-.92-.29-1.3.29-1.5,1.89-1.84,2.27-.67.44-1.25.15A15.81,15.81,0,0,1,21,26a17.42,17.42,0,0,1-3.22-4c-.34-.58,0-.89.25-1.18s.58-.68.87-1a3.84,3.84,0,0,0,.58-1,1,1,0,0,0-.05-1c-.14-.29-1.27-3.16-1.78-4.3Z" style="fill:#333"/><path d="M39.81,6.8a23.21,23.21,0,0,0-36.52,28L0,46.8l12.3-3.22A23.14,23.14,0,0,0,23.39,46.4h0A23.2,23.2,0,0,0,39.81,6.8ZM23.4,42.49h0a19.33,19.33,0,0,1-9.82-2.69l-.7-.42-7.3,1.91,1.95-7.11-.46-.73a19.28,19.28,0,1,1,16.34,9Z" style="fill:#333"/></g></g></svg>