<?xml version="1.0" encoding="UTF-8"?>
<svg width="26px" height="30px" viewBox="0 0 26 30" version="1.1" xmlns="http://www.w3.org/2000/svg" xmlns:xlink="http://www.w3.org/1999/xlink">
    <!-- Generator: Sketch 48.1 (47250) - http://www.bohemiancoding.com/sketch -->
    <title>BEIT HATFUTSOT_Heb Copy 4</title>
    <desc>Created with Sketch.</desc>
    <defs></defs>
    <g id="Homepage-All" stroke="none" stroke-width="1" fill="none" fill-rule="evenodd" transform="translate(-1041.000000, -709.000000)">
        <g id="museum-icons" transform="translate(166.000000, 709.000000)" fill="#AFC0CB">
            <g id="BEIT-HATFUTSOT_Heb-Copy-3" transform="translate(875.000000, 0.000000)">
                <g>
                    <path d="M13.2467679,29.84608 L11.9719167,27.58168 C12.344506,27.36208 12.7728095,27.23608 13.2324524,27.23608 C13.6917083,27.23608 14.1203988,27.36208 14.4929881,27.58168 L13.2467679,29.84608" id="Fill-1"></path>
                    <path d="M1.96760417,9.70412 L0.707068452,7.44692 L3.24245536,7.44692 C3.23858631,7.88972 3.1236756,8.35052 2.89037202,8.76092 C2.6605506,9.16772 2.33709821,9.48452 1.96760417,9.70412" id="Fill-3"></path>
                    <polygon id="Fill-5" points="5.70061607 22.6172 3.69490179 22.6136 3.98740179 20.9144 5.41508036 20.5148"></polygon>
                    <polygon id="Fill-7" points="4.47869345 14.18964 2.60143155 10.83444 4.7673244 11.03964"></polygon>
                    <polygon id="Fill-9" points="0.724517857 22.6172 1.88755357 20.5224 3.32916071 20.9792 3.05058929 22.6136"></polygon>
                    <path d="M11.5887649,2.9254 L13.1456696,0.1102 C13.9496577,1.525 14.3644196,2.3134 14.3644196,2.3134 C14.0719196,2.3854 11.5887649,2.9254 11.5887649,2.9254" id="Fill-11"></path>
                    <polygon id="Fill-13" points="4.4431756 17.85468 3.62874107 17.37948 4.89662798 15.08628 5.27888988 15.73388"></polygon>
                    <polygon id="Fill-15" points="23.0977113 11.98652 21.7640506 11.69492 22.4744077 9.38372 24.3021458 9.81572"></polygon>
                    <polygon id="Fill-17" points="10.8157679 25.5008 10.2520476 24.4896 11.7876726 23.2728 12.8907381 25.1444"></polygon>
                    <path d="M10.0117411,24.05 L9.23096726,22.6572 C11.3070982,22.6572 11.738497,22.6604 11.738497,22.6604 L10.0117411,24.05" id="Fill-19"></path>
                    <polygon id="Fill-21" points="21.4987113 14.80528 20.3848125 12.83968 21.5478482 12.19888 22.7909732 12.47968"></polygon>
                    <polygon id="Fill-23" points="14.8548214 26.9086 13.8836905 26.4946 13.5285119 24.9174 15.7957738 25.2018"></polygon>
                    <polygon id="Fill-25" points="25.7509107 22.62812 23.7451964 22.62812 24.4482024 20.30612"></polygon>
                    <polygon id="Fill-27" points="10.0494643 5.76212 11.188125 3.68492 13.1002083 3.26012 12.0346726 5.71532"></polygon>
                    <path d="M22.602744,20.09024 C21.5267619,18.92744 20.7920298,18.12464 20.7920298,18.12464 L23.2395893,18.20344 L24.1557798,19.82384 L22.602744,20.09024" id="Fill-29"></path>
                    <polygon id="Fill-31" points="15.2591369 6.45332 13.2990774 4.56692 13.9146429 3.17732 14.7960119 2.99012 16.237619 5.58932"></polygon>
                    <polygon id="Fill-33" points="21.8440625 9.301 20.3885268 9.2794 20.9313542 7.465 22.4116518 7.465"></polygon>
                    <polygon id="Fill-35" points="21.2312054 21.35352 20.4020685 21.13392 20.5556696 18.71152 22.3837946 20.70952"></polygon>
                    <polygon id="Fill-37" points="9.39133929 16.65936 7.6297619 15.66576 8.96651786 13.44816 10.3322917 14.39856"></polygon>
                    <path d="M10.3321369,20.92188 L9.17606548,19.44588 C9.77460714,19.04628 11.0038036,18.31508 11.0038036,18.31508 L11.9826726,18.94548 L10.3321369,20.92188" id="Fill-39"></path>
                    <path d="M8.45502976,19.26212 L8.75797619,16.95812 C9.00520833,17.08412 10.5060119,17.98412 10.5060119,17.98412 C10.261875,18.12812 8.45502976,19.26212 8.45502976,19.26212" id="Fill-41"></path>
                    <polygon id="Fill-43" points="6.14644643 15.98984 5.25192262 14.42744 6.68617857 11.87864 7.67820238 14.61824"></polygon>
                    <polygon id="Fill-45" points="11.6167768 12.48692 10.332253 11.17652 12.3271339 9.75092 12.8355268 12.08732"></polygon>
                    <polygon id="Fill-47" points="14.827622 12.18808 13.2498244 11.08648 12.6234256 8.38288 14.1029494 8.03008"></polygon>
                    <polygon id="Fill-49" points="16.0911369 13.87656 15.241881 11.50056 17.9440238 11.53656"></polygon>
                    <polygon id="Fill-51" points="19.852122 21.14492 18.3756935 20.60132 19.7403065 18.10652"></polygon>
                    <polygon id="Fill-53" points="21.1404762 15.35976 19.2179464 15.08616 19.9108929 13.15656"></polygon>
                    <polygon id="Fill-55" points="19.4553899 17.47304 17.7692589 16.84984 16.9308363 15.09344 20.2903304 15.94304"></polygon>
                    <polygon id="Fill-57" points="8.03338095 13.92696 7.27079167 11.77776 8.52823214 10.11456 9.61427381 11.24136"></polygon>
                    <polygon id="Fill-59" points="7.0691369 11.0506 6.97550595 7.447 7.6858631 7.447 8.66357143 8.9158"></polygon>
                    <polygon id="Fill-61" points="8.58046429 22.6172 6.21222024 22.6136 5.96227976 20.8572"></polygon>
                    <polygon id="Fill-63" points="9.37091071 8.89416 8.65010714 8.26776 9.70210119 6.38136 11.2895714 6.36696"></polygon>
                    <polygon id="Fill-65" points="7.23237202 20.9758 6.05966369 20.1946 6.65511012 18.1206 8.08549702 19.0102"></polygon>
                    <polygon id="Fill-67" points="4.09558036 20.209 5.6099256 16.3246 6.26147321 17.5054 5.60683036 19.7842"></polygon>
                    <path d="M11.5994048,26.89764 L11.1080357,26.02324 L13.0510714,25.69164 C13.0510714,25.69164 13.1416071,26.10924 13.2360119,26.50884 L11.5994048,26.89764" id="Fill-69"></path>
                    <path d="M13.4900923,24.45312 L12.4175923,23.32672 C12.6435446,23.10312 12.9851815,22.49832 13.0788125,22.04512 L14.5939315,22.10632 C14.6047649,23.08912 14.0894077,24.01392 13.4900923,24.45312" id="Fill-71"></path>
                    <polygon id="Fill-73" points="23.1423214 22.62812 22.0245536 22.62812 21.6384226 21.86852 23.6228571 20.58652"></polygon>
                    <path d="M22.9548661,17.65272 L20.1339435,17.51592 C20.220997,17.31792 20.8373363,16.22752 20.8373363,16.22752 L21.9620685,15.88512 L22.9548661,17.65272" id="Fill-75"></path>
                    <polygon id="Fill-77" points="21.3770685 22.62812 17.7243006 22.61732 18.6575149 21.26012 20.9940327 21.87932"></polygon>
                    <polygon id="Fill-79" points="17.1845685 22.70744 14.9107292 21.81464 16.2269792 19.71904 17.9962946 21.28184"></polygon>
                    <polygon id="Fill-81" points="13.3336667 21.53008 12.8879524 18.93088 15.5514048 19.39528 14.8201548 20.78848"></polygon>
                    <path d="M12.1321339,22.32932 L10.5996042,21.42932 L12.1185923,19.60052 C12.4350804,19.88852 12.6579375,20.33492 12.6927589,20.80652 L12.6958542,20.84972 C12.7206161,21.32852 12.5182649,22.01252 12.1321339,22.32932" id="Fill-83"></path>
                    <polygon id="Fill-85" points="3.52048512 20.36016 2.21158631 19.95696 3.34289583 17.91576 4.28384821 18.45216"></polygon>
                    <path d="M16.0805357,24.70156 C16.0774405,24.70156 15.0815476,24.56116 14.5344643,24.48556 C14.9523214,24.00316 15.2765476,23.30516 15.2939583,22.53076 L16.920119,23.16076 C16.9065774,23.18996 16.1122619,24.64756 16.0805357,24.70156" id="Fill-87"></path>
                    <polygon id="Fill-89" points="10.5618423 22.08436 8.87958036 22.08076 7.70609821 21.28916 8.69154464 19.71916"></polygon>
                    <path d="M8.04394345,18.3082 C7.59822917,18.2358 7.18385417,17.9694 6.93313988,17.5338 C6.63019345,17.0158 6.64063988,16.393 6.90528274,15.8962 L7.26394345,16.101 L8.27376488,16.6774 L8.04394345,18.3082" id="Fill-91"></path>
                    <polygon id="Fill-93" points="21.0603869 12.0332 20.3604762 11.882 19.2701786 9.902 21.7428869 9.9344"></polygon>
                    <polygon id="Fill-95" points="14.5699435 14.74044 12.2256875 13.07724 13.6746458 12.14124 15.286878 13.26084 15.579378 14.19324"></polygon>
                    <polygon id="Fill-97" points="12.6717113 15.8746 10.9550149 14.6974 12.4004911 13.8874 14.1171875 15.0358"></polygon>
                    <path d="M15.7064762,16.91876 C15.6619821,16.91876 15.6174881,16.91756 15.5726071,16.91476 C14.8239464,16.87556 14.1693036,16.50076 13.7340357,15.93956 L15.8759405,14.71156 L16.8052857,16.65196 C16.4733214,16.82036 16.1003452,16.91876 15.7064762,16.91876" id="Fill-99"></path>
                    <polygon id="Fill-101" points="12.1986429 7.85 11.5262024 7.22 13.0304881 5.1608 14.733256 6.8384 14.099119 7.4072"></polygon>
                    <path d="M18.574253,14.92772 L16.3418125,14.36252 L17.9993125,12.58412 C17.9993125,12.58412 19.0474375,13.45172 18.574253,14.92772" id="Fill-103"></path>
                    <path d="M19.0790476,13.39764 C19.0268155,13.19604 18.9467262,12.99804 18.8387798,12.81084 C18.7025893,12.56964 18.5358333,12.36084 18.3447024,12.18444 L18.9014583,10.36644 L19.9600298,12.24924 L19.0790476,13.39764" id="Fill-105"></path>
                    <path d="M15.558369,10.88124 L15.0921488,10.88124 L14.7574762,8.91564 L16.1054524,9.29004 C15.7502738,9.74004 15.558369,10.30524 15.558369,10.88124" id="Fill-107"></path>
                    <polygon id="Fill-109" points="24.6120952 9.23612 22.6973036 8.77532 23.0803393 7.47212 25.5975417 7.47212"></polygon>
                    <polygon id="Fill-111" points="10.8648661 14.0744 9.30447917 12.998 10.0666815 11.6732 11.8781696 13.484"></polygon>
                    <polygon id="Fill-113" points="10.0011012 10.75176 9.22806548 10.01376 11.0144048 7.59096 12.0760714 8.64216 12.1735714 9.17856"></polygon>
                    <polygon id="Fill-115" points="18.4420089 19.39884 17.149747 17.21004 19.2285863 17.96964"></polygon>
                    <path d="M17.7626815,20.30976 L16.5125923,19.21536 L16.7424137,17.69616 C17.3726815,18.16416 17.8497351,18.93096 17.8183958,19.80936 C17.8118185,19.98216 17.801372,20.14776 17.7626815,20.30976" id="Fill-117"></path>
                    <polygon id="Fill-119" points="12.1880804 18.30468 9.91037202 16.96508 10.665997 15.16188 13.639747 16.97628"></polygon>
                    <polygon id="Fill-121" points="5.53664583 9.62852 3.98361012 7.44692 6.49771726 7.44692 6.5499494 8.76452"></polygon>
                    <polygon id="Fill-123" points="4.60033631 10.40976 2.3651875 10.21176 3.91048512 8.27496 5.05611012 10.02096"></polygon>
                    <polygon id="Fill-125" points="5.29633929 13.34004 5.14660714 13.10604 5.36946429 10.53924 6.52979167 9.53844 6.56732143 11.07564"></polygon>
                    <polygon id="Fill-127" points="16.0178185 18.90588 12.989128 18.39108 14.1378482 17.20668 16.2724018 17.45108"></polygon>
                    <polygon id="Fill-129" points="19.8657024 9.27208 18.7374881 9.25768 17.836 7.46128 20.4127857 7.46488"></polygon>
                    <path d="M18.1669196,11.00372 L16.0803423,10.97852 L16.0803423,10.97132 C16.0803423,9.84452 16.9164435,8.91932 17.9788839,8.81852 L18.5317708,9.78692 L18.1669196,11.00372" id="Fill-131"></path>
                    <path d="M16.6102857,8.8832 L14.7922202,8.39 L14.6947202,7.7852 C15.6596607,6.9464 16.5754643,6.1796 16.5754643,6.1796 L17.7489464,8.3508 C17.466506,8.4012 17.1883214,8.5016 16.9240655,8.66 C16.8118631,8.7248 16.7077857,8.8008 16.6102857,8.8832" id="Fill-133"></path>
                </g>
            </g>
        </g>
    </g>
</svg>